<svg width="406" height="90" viewBox="0 0 406 90" fill="none" xmlns="http://www.w3.org/2000/svg">
<g clip-path="url(#clip0_26_158)">
<path d="M110.377 74.1549C124.562 74.1549 131.927 67.0322 131.927 56.4085C131.927 49.2857 128.667 44.2757 121.122 42.0423C125.407 38.9034 127.218 34.9799 127.218 30.0302C127.218 20.1911 120.639 15 99.9346 15H87.5V21.2173H93.7173V74.1549H110.377ZM109.11 46.6901C120.035 46.6901 123.838 50.0704 123.838 56.2877C123.838 63.4708 118.828 67.9376 109.713 67.9376H101.444V46.6901H109.11ZM109.291 40.5936H101.444V21.2173C115.689 21.4588 119.432 24.7787 119.432 30.8753C119.432 35.2817 117.5 38.4809 114.18 40.835C112.671 40.6539 110.981 40.5936 109.291 40.5936ZM175.206 74.1549V33.833H167.601V42.163C167.42 53.2696 164.583 68.5412 154.442 68.5412C149.914 68.5412 147.741 66.006 147.741 59.6077V33.833H140.136V61.1167C140.136 69.8089 143.516 74.8793 152.329 74.8793C160.236 74.8793 165.065 71.0161 167.782 64.1348L168.506 74.1549H175.206ZM192.108 43.3702C192.108 40.3521 194.22 38.9638 199.351 38.9638C202.43 38.9638 206.896 39.507 209.009 40.4125V34.4366C207.138 33.6519 203.154 32.9879 198.929 32.9879C188.727 32.9879 184.683 36.7907 184.683 43.0081C184.683 49.2857 188.305 52.002 195.729 56.2274C201.886 59.8491 203.335 61.7203 203.335 64.0745C203.335 67.6962 199.653 69.0845 194.884 69.0845C191.444 69.0845 188.063 68.5412 184.14 67.2736V73.3099C186.977 74.2757 191.625 75 195.971 75C203.456 75 210.76 72.7666 210.76 64.0141C210.76 57.0724 206.715 54.5372 200.8 51.0362C194.281 47.173 192.108 45.9054 192.108 43.3702ZM244.562 33.4105C242.57 33.169 240.337 32.9879 237.802 32.9879C223.134 32.9879 216.675 40.835 216.675 52.1831C216.675 67.0322 228.023 74.5775 242.329 74.5775C243.838 74.5775 244.683 74.4567 246.192 74.3964V68.2998C244.864 68.4809 243.657 68.5412 242.389 68.5412C231.041 68.5412 224.462 61.5392 224.462 51.8813C224.462 44.0342 228.808 39.0845 238.768 39.0845C240.76 39.0845 242.45 39.1449 244.562 39.507V33.4105ZM289.049 74.1549C288.265 70.2314 288.084 63.2897 288.084 56.8913V36.67H288.023V35.5231C283.737 33.833 277.037 32.9879 272.329 32.9879C258.627 32.9879 251.263 41.0161 251.263 55.9859C251.263 69.7485 257.782 75 266.534 75C273.053 75 277.822 72.0423 280.659 64.8592C280.84 67.8169 281.202 70.7747 281.745 74.1549H289.049ZM268.164 68.662C262.611 68.662 259.049 65.1006 259.049 55.5634C259.049 44.3964 263.878 38.9034 272.57 38.9034C274.925 38.9034 277.641 39.2052 280.418 39.7485V40.6539C280.055 64.497 273.898 68.662 268.164 68.662ZM308.969 74.1549V55.2012C325.206 54.2958 335.106 46.5091 335.106 33.833C335.106 23.9336 327.983 15 305.407 15H295.025V21.2173H301.303V74.1549H308.969ZM326.957 34.0744C326.957 42.2837 320.921 48.1992 308.969 49.1046V21.338C323.335 22.1831 326.957 27.7364 326.957 34.0744ZM358.104 32.9879C346.333 32.9879 339.331 39.8089 339.331 53.1489C339.331 67.5151 347.842 75 361.363 75C365.951 75 370.9 74.2153 374.703 72.7062V66.4286C369.995 67.9376 364.743 68.662 361.182 68.662C352.671 68.662 347.661 64.5573 346.756 55.8652H375.428V52.4245C375.428 39.6278 369.15 32.9879 358.104 32.9879ZM357.983 38.7223C364.562 38.7223 367.882 43.7928 367.882 50.6137H346.695C347.359 42.4648 351.766 38.7223 357.983 38.7223ZM405.488 67.8169C403.436 68.2394 402.108 68.4809 400.176 68.4809C395.528 68.4809 393.657 66.5493 393.657 60.2113V39.6278H404.703V33.833H393.657V23.6922H390.035L386.414 33.833H379.653V39.6278H386.051V61.0563C386.051 70.2314 389.069 74.5775 398.365 74.5775C401.625 74.5775 403.436 74.2153 405.488 73.7324V67.8169Z" fill="white"/>
<path d="M25.9642 38.5714H42.0357V48.2143H25.9642V38.5714Z" fill="white"/>
<path d="M58.1071 9.64282H9.89282V61.0714H58.1071V9.64282ZM53.2857 28.9285H51.6785V36.9643C51.6785 37.3905 51.5092 37.7993 51.2078 38.1007C50.9064 38.4021 50.4976 38.5714 50.0714 38.5714H45.25V56.25C45.25 56.6762 45.0806 57.085 44.7792 57.3864C44.4778 57.6878 44.0691 57.8571 43.6428 57.8571C43.2166 57.8571 42.8078 57.6878 42.5064 57.3864C42.205 57.085 42.0357 56.6762 42.0357 56.25V51.4285H38.8214V56.25C38.8214 56.6762 38.6521 57.085 38.3507 57.3864C38.0493 57.6878 37.6405 57.8571 37.2143 57.8571C36.788 57.8571 36.3792 57.6878 36.0778 57.3864C35.7764 57.085 35.6071 56.6762 35.6071 56.25V51.4285H32.3928V56.25C32.3928 56.6762 32.2235 57.085 31.9221 57.3864C31.6207 57.6878 31.2119 57.8571 30.7857 57.8571C30.3594 57.8571 29.9507 57.6878 29.6493 57.3864C29.3479 57.085 29.1785 56.6762 29.1785 56.25V51.4285H25.9643V56.25C25.9643 56.6762 25.7949 57.085 25.4935 57.3864C25.1921 57.6878 24.7833 57.8571 24.3571 57.8571C23.9309 57.8571 23.5221 57.6878 23.2207 57.3864C22.9193 57.085 22.75 56.6762 22.75 56.25V38.5714H21.1428C20.7166 38.5714 20.3078 38.4021 20.0064 38.1007C19.705 37.7993 19.5357 37.3905 19.5357 36.9643V31.1593L16.8293 32.0592C16.4279 32.1832 15.9939 32.145 15.6203 31.9529C15.2468 31.7608 14.9632 31.4301 14.8305 31.0316C14.6977 30.6331 14.7262 30.1984 14.91 29.8206C15.0937 29.4429 15.418 29.1521 15.8135 29.0105L19.5357 27.7714V26.8746L15.8135 25.6339C15.409 25.4992 15.0746 25.2093 14.8838 24.8281C14.693 24.4468 14.6615 24.0054 14.7962 23.6009C14.9309 23.1964 15.2208 22.8619 15.602 22.6711C15.9833 22.4804 16.4247 22.4488 16.8293 22.5835L19.5357 23.4851V17.6785C19.5357 17.3607 19.63 17.0501 19.8066 16.7858C19.9832 16.5216 20.2342 16.3157 20.5278 16.1941C20.8215 16.0724 21.1446 16.0406 21.4563 16.1026C21.768 16.1646 22.0543 16.3176 22.2791 16.5423L25.0225 19.2857H26.906L29.6494 16.5423C29.8742 16.3176 30.1605 16.1646 30.4722 16.1026C30.7839 16.0406 31.107 16.0724 31.4007 16.1941C31.6943 16.3157 31.9453 16.5216 32.1219 16.7858C32.2985 17.0501 32.3928 17.3607 32.3928 17.6785V23.4835L35.0992 22.5835C35.5006 22.4596 35.9346 22.4978 36.3082 22.6899C36.6817 22.882 36.9653 23.2127 37.098 23.6112C37.2308 24.0097 37.2023 24.4444 37.0185 24.8222C36.8348 25.1999 36.5105 25.4907 36.115 25.6323L32.3928 26.8714V27.7682L36.115 29.0089C36.5195 29.1436 36.8539 29.4334 37.0447 29.8147C37.2355 30.196 37.267 30.6374 37.1323 31.0419C36.9976 31.4464 36.7077 31.7809 36.3265 31.9716C35.9452 32.1624 35.5038 32.1939 35.0992 32.0592L32.3928 31.1593V35.3571H48.4643V27.3214C48.4643 26.8952 48.6336 26.4864 48.935 26.185C49.2364 25.8836 49.6452 25.7143 50.0714 25.7143H53.2857C53.7119 25.7143 54.1207 25.8836 54.4221 26.185C54.7235 26.4864 54.8928 26.8952 54.8928 27.3214C54.8928 27.7476 54.7235 28.1564 54.4221 28.4578C54.1207 28.7592 53.7119 28.9285 53.2857 28.9285Z" fill="white"/>
<path d="M29.1786 21.5582L28.7077 22.0291C28.4064 22.3305 27.9976 22.4999 27.5714 22.5H24.3571C23.9309 22.4999 23.5222 22.3305 23.2209 22.0291L22.75 21.5582V35.3572H29.1786V21.5582ZM27.5714 30.5357C27.5714 30.962 27.4021 31.3708 27.1007 31.6722C26.7993 31.9735 26.3905 32.1429 25.9643 32.1429C25.538 32.1429 25.1293 31.9735 24.8279 31.6722C24.5265 31.3708 24.3571 30.962 24.3571 30.5357V28.9286C24.3571 28.5023 24.5265 28.0936 24.8279 27.7922C25.1293 27.4908 25.538 27.3214 25.9643 27.3214C26.3905 27.3214 26.7993 27.4908 27.1007 27.7922C27.4021 28.0936 27.5714 28.5023 27.5714 28.9286V30.5357Z" fill="white"/>
<path d="M0.25 90H67.75V0H0.25V90ZM45.25 83.5714H9.89286C9.46662 83.5714 9.05783 83.4021 8.75643 83.1007C8.45504 82.7993 8.28571 82.3905 8.28571 81.9643C8.28571 81.538 8.45504 81.1293 8.75643 80.8279C9.05783 80.5265 9.46662 80.3571 9.89286 80.3571H45.25C45.6762 80.3571 46.085 80.5265 46.3864 80.8279C46.6878 81.1293 46.8571 81.538 46.8571 81.9643C46.8571 82.3905 46.6878 82.7993 46.3864 83.1007C46.085 83.4021 45.6762 83.5714 45.25 83.5714ZM45.25 77.1429H9.89286C9.46662 77.1429 9.05783 76.9735 8.75643 76.6721C8.45504 76.3707 8.28571 75.962 8.28571 75.5357C8.28571 75.1095 8.45504 74.7007 8.75643 74.3993C9.05783 74.0979 9.46662 73.9286 9.89286 73.9286H45.25C45.6762 73.9286 46.085 74.0979 46.3864 74.3993C46.6878 74.7007 46.8571 75.1095 46.8571 75.5357C46.8571 75.962 46.6878 76.3707 46.3864 76.6721C46.085 76.9735 45.6762 77.1429 45.25 77.1429ZM58.1071 83.5714H51.6786C51.2523 83.5714 50.8435 83.4021 50.5421 83.1007C50.2407 82.7993 50.0714 82.3905 50.0714 81.9643C50.0714 81.538 50.2407 81.1293 50.5421 80.8279C50.8435 80.5265 51.2523 80.3571 51.6786 80.3571H58.1071C58.5334 80.3571 58.9422 80.5265 59.2436 80.8279C59.545 81.1293 59.7143 81.538 59.7143 81.9643C59.7143 82.3905 59.545 82.7993 59.2436 83.1007C58.9422 83.4021 58.5334 83.5714 58.1071 83.5714ZM58.1071 77.1429H51.6786C51.2523 77.1429 50.8435 76.9735 50.5421 76.6721C50.2407 76.3707 50.0714 75.962 50.0714 75.5357C50.0714 75.1095 50.2407 74.7007 50.5421 74.3993C50.8435 74.0979 51.2523 73.9286 51.6786 73.9286H58.1071C58.5334 73.9286 58.9422 74.0979 59.2436 74.3993C59.545 74.7007 59.7143 75.1095 59.7143 75.5357C59.7143 75.962 59.545 76.3707 59.2436 76.6721C58.9422 76.9735 58.5334 77.1429 58.1071 77.1429ZM6.67857 8.03571C6.67857 7.60947 6.8479 7.20069 7.14929 6.89929C7.45069 6.5979 7.85947 6.42857 8.28571 6.42857H59.7143C60.1405 6.42857 60.5493 6.5979 60.8507 6.89929C61.1521 7.20069 61.3214 7.60947 61.3214 8.03571V62.6786C61.3214 63.1048 61.1521 63.5136 60.8507 63.815C60.5493 64.1164 60.1405 64.2857 59.7143 64.2857H8.28571C7.85947 64.2857 7.45069 64.1164 7.14929 63.815C6.8479 63.5136 6.67857 63.1048 6.67857 62.6786V8.03571Z" fill="white"/>
</g>
<defs>
<clipPath id="clip0_26_158">
<rect width="406" height="90" fill="white"/>
</clipPath>
</defs>
</svg>
